<?xml version="1.0" encoding="UTF-8" standalone="no"?>
<!DOCTYPE svg PUBLIC "-//W3C//DTD SVG 1.1//EN" "http://www.w3.org/Graphics/SVG/1.1/DTD/svg11.dtd">
<svg width="100%" height="100%" viewBox="0 0 455 307" version="1.1" xmlns="http://www.w3.org/2000/svg" xmlns:xlink="http://www.w3.org/1999/xlink" xml:space="preserve" xmlns:serif="http://www.serif.com/" style="fill-rule:evenodd;clip-rule:evenodd;stroke-linejoin:round;stroke-miterlimit:2;">
    <g transform="matrix(1,0,0,1,-531.798,-3.73303)">
        <g transform="matrix(1,0,0,1,528.478,-23.87)">
            <path d="M216.16,110.83C222.32,105.34 232.3,105.85 239.25,109.65C239.83,111.26 240.57,112.97 239.43,114.55C237.4,117.21 233.87,117.79 230.92,118.87C231.6,119.66 232.67,120.4 233.74,119.62C248.8,114.23 265.02,111.46 281,113.17C285.76,113.49 290.96,113.89 294.75,117.15C295.95,121.71 290.88,123.83 287.4,124.97C278.87,127.26 269.85,127.63 261.09,126.69C251.41,126.23 241.9,124.04 232.64,121.3C228.74,122.46 224.93,124.1 221.29,125.93C219.17,127.03 216.98,130.59 219.98,131.99C226.26,134.54 233.9,135.18 240.03,131.75C240.29,129.45 237,129.27 237.36,126.99C239.01,127.96 240.42,129.26 241.63,130.74C241.1,131.53 240.58,132.32 240.07,133.12C233.84,135.98 226.57,135.61 220.2,133.45C218.19,132.92 217.57,130.83 217.16,129.05C219.73,123.58 226.24,122.89 231.06,120.37C227.61,119.24 224.34,121.09 221.04,121.82C206.67,125.49 191.76,127.34 176.93,126.34C172.1,125.93 166.77,125.61 163.14,121.95C163.1,120.09 163.06,117.8 164.93,116.75C170.97,113.25 178.2,113.34 184.95,112.71C198.8,112.38 212.72,114.11 226.05,117.93C229.44,119.18 232.74,117.06 235.82,115.87C237.62,115.24 238.58,113.55 239.49,112.01C235.11,107.21 227.83,107.47 222.01,108.8C220.55,109.48 217.74,109.46 218.06,111.67C218.94,112.22 219.85,112.75 220.77,113.24C220.64,113.56 220.36,114.2 220.23,114.52C218.67,113.53 217.25,112.33 216.16,110.83M165.72,117.64C164.2,118.38 163.59,120.41 164.7,121.78C167.5,124.35 171.43,124.66 175.03,125.08C192.24,126.33 209.82,124.42 226.19,118.94C212.41,115.54 198.23,113.13 184,113.78C177.84,114.54 171.26,114.49 165.72,117.64M236.96,119.69C236.45,119.97 235.42,120.54 234.9,120.82C236.22,121.19 237.53,121.55 238.85,121.91C254.56,125.62 271.28,128.16 287.14,123.87C289.64,122.72 294.99,121.34 293.47,117.7C290.02,114.92 285.37,114.55 281.13,114.28C266.24,112.41 251.13,115.15 236.96,119.69" style="fill:white;fill-rule:nonzero;"/>
        </g>
        <g transform="matrix(1,0,0,1,528.478,-24.93)">
            <path d="M144.1,39.62C184.4,29.32 226.52,26.27 267.89,30.52C300.34,33.94 332.49,41.89 362.07,55.83C383.5,65.8 404.29,77.78 421.88,93.73C437.46,107.91 450.36,125.86 455.49,146.54C456.61,154.61 457.93,162.73 457.65,170.91C457.56,177.37 456.43,183.75 455.76,190.17C451.73,209.15 441.65,226.42 428.93,240.89C424.44,245.86 419.43,250.32 414.62,254.96C411.76,252.05 409.03,249.03 406.32,245.99C421.46,234.12 434.16,218.55 440.33,200.14C443.92,189.47 446.09,178.22 445.86,166.93C446.5,147.09 437.21,128.27 424.62,113.43C407.67,93.41 385.33,78.77 362.23,66.77C349.39,59.85 335.33,55.68 321.42,51.51C264.75,35.19 203.99,36.12 146.9,49.9C135.3,52.64 124,56.51 112.9,60.83C96.22,67.22 80.1,75.2 65.41,85.4C43.75,100.28 25.35,121.65 18.79,147.56C15.55,158.73 15.8,170.49 16.41,181.99C20.15,208.52 37.01,230.94 56.18,248.71C52.95,250.51 49.77,252.41 46.42,253.97C32.53,239.98 19.6,224.52 11.58,206.34C6.78,196.19 4.89,185 3.49,173.96C2.71,166.96 4.85,160.16 4.99,153.2C6.36,149.6 6.78,145.73 7.95,142.08C13.61,122.47 25.49,105.07 40.37,91.28C52.06,80.14 65.6,71.06 79.93,63.7C100.13,52.86 122,45.49 144.1,39.62M144.08,301.86C146.81,299.23 149.83,296.95 152.79,294.6C162.93,297.71 173.52,299.38 184.11,299.8C184.17,302.96 184.17,306.12 184.1,309.28C170.56,307.98 157.2,305.4 144.08,301.86M278.12,298.57C287.84,298.54 297.47,297 306.92,294.79C311.94,296.96 317.04,298.95 322.06,301.14C321.31,301.44 319.82,302.04 319.08,302.35C302.07,306.86 284.69,310.02 267.16,311.66C270.75,307.24 274.49,302.95 278.12,298.57" style="fill:white;fill-rule:nonzero;"/>
        </g>
        <g transform="matrix(1,0,0,1,528.478,23.17)">
            <path d="M241.52,2.18C249.77,1.91 258.07,1.67 266.3,2.27C258.07,3.07 249.75,2.86 241.52,2.18M224,192.7C225.8,191.9 227.62,190.71 229.7,191.07C229.94,191.18 230.42,191.39 230.66,191.49L231.17,191.71C231.73,192.97 232.28,194.24 232.8,195.52C235.6,196.46 237.76,194.54 239.83,192.99C241.91,192.79 242.94,195.32 244.52,196.35C247.28,199.27 251.52,197.53 254.97,198.38C257.21,199.07 257.88,201.51 258.63,203.45C260.6,204.13 262.64,204.64 264.54,205.51C266.05,206.57 265.37,208.66 265.72,210.2C267.77,211.9 271.18,212.12 272.32,214.9C273.27,217.82 270.51,219.91 268.99,221.99C269.13,223.92 271.13,224.45 272.56,225.19C272.04,227.57 271.48,229.94 270.95,232.31C269.82,232.31 268.68,232.31 267.56,232.32C267.44,233.61 267.34,234.92 267.24,236.22C268.72,236.34 270.2,236.46 271.69,236.6C272.46,238.95 272.15,241.57 269.86,242.93C266.35,243.56 262.72,243.07 259.19,243.7C259.2,244.78 259.21,245.88 259.23,246.98C261.25,247.43 263.87,246.81 265.27,248.69C265.8,251.21 264.64,253.74 262.59,255.22C260.49,255.71 257.83,255.1 256.35,257.05C255.82,259.14 256.14,261.33 256.24,263.47C255.58,263.43 254.27,263.36 253.61,263.32C253.01,265.24 252.67,267.22 252.43,269.22C247.55,267.93 242.69,266.03 237.56,266.29C237.51,266.78 237.39,267.77 237.33,268.27C238.95,269.27 240.47,270.43 242.11,271.41C244,271.79 245.95,271.46 247.87,271.5C248.83,275.79 243.8,277.53 240.67,278.76C238.58,276.88 236.32,274.94 233.36,274.87C233.25,278.57 233.37,282.28 233.44,285.98C230.47,287.88 226.9,288.16 223.97,286.03C224.17,281.65 226.5,277.24 224.77,272.92C224.34,272.91 223.47,272.88 223.04,272.87C221.52,275.42 220.44,278.2 219.19,280.88C215.22,280.31 211.21,279.58 207.63,277.67C210.23,275.07 213.86,273.96 216.85,271.88C216.27,270.91 215.69,269.92 215.09,268.98C212.36,270.92 209.56,273.46 205.89,272.63C202.78,272.48 201.92,269.1 201.38,266.62C199.38,265.27 196.62,264.36 196.22,261.62C199.59,260.66 203.1,260.46 206.59,260.31C207.02,259.59 207.46,258.87 207.9,258.16C202.73,259.21 197.94,257.19 193.25,255.3C192.52,253.69 192.12,251.98 192.09,250.21C195.2,250.04 198.28,250.49 201.21,251.55C202.17,250.51 203.13,249.47 204.07,248.41C200.17,248.06 196.26,248.23 192.36,248.07C190.8,245.62 188.81,243.3 188.37,240.33C190.62,240.3 192.87,240.57 195.12,240.49C196.22,240.31 198.05,239.99 197.74,238.47C193.95,236.82 189.44,236.97 185.97,234.68C182.03,230.88 184.44,225.4 186.49,221.32C187.88,221.29 189.28,221.27 190.68,221.25C190.77,217.49 188.37,214.04 189.45,210.22C191.99,211.11 194.65,211.99 197.36,211.23C197.83,208.12 196.55,204.24 199.18,201.88C202.26,201.36 205.1,203.51 208.22,203.49C208.67,201.28 209.12,199.08 209.63,196.88C213.79,195.26 218.2,198.48 222.21,196.03C222.8,194.91 223.4,193.81 224,192.7M235.68,215.04C239.75,215.16 243.99,215.91 247.95,214.76C248.99,213.4 246.88,212.47 246.29,211.45C244.84,210.19 243.35,208.09 241.17,208.76C238.84,210.36 237.16,212.68 235.68,215.04M214.31,215.11C218.67,216.95 223.56,215.87 228.15,215.87C226.57,213.62 224.77,211.54 222.92,209.51C218.79,208.71 216.29,212.08 214.31,215.11M244.17,222.72C246.5,224.82 250.15,223.74 253.04,224.03C254.54,223.8 257.72,224.45 257.72,222.16C255.78,219.32 252.9,216.77 249.21,217.47C247.61,219.29 245.47,220.66 244.17,222.72M223.66,223.86C223.98,224.12 224.63,224.65 224.95,224.91C229.33,225.26 233.73,224.94 238.12,224.84C236.41,222.49 234.61,220.05 232,218.63C228.25,217.69 225.69,221.31 223.66,223.86M203.64,224.88C207.92,225.22 212.23,225.19 216.51,224.82C215.51,222.41 213.65,220.02 211.03,219.38C207.52,218.87 205.34,222.37 203.64,224.88M251.71,230.87C256.06,232.7 260.86,231.85 265.42,231.74C264.35,229.48 263.24,226.97 260.97,225.68C256.86,224.27 254.09,228.26 251.71,230.87M235.09,232.17C239.29,234.14 244.07,232.99 248.52,232.93C247.3,229.83 244.47,226.98 241.06,226.66C238.69,228.04 236.93,230.19 235.09,232.17M195.75,233.82C200.33,235.15 205.51,235.91 210.03,233.94C207.9,230.76 205.01,228.09 201.09,227.51C199.01,229.35 197.07,231.36 195.75,233.82M214.67,234.03C218.9,234.39 223.17,234.42 227.4,233.99C225.85,230.92 223.29,228.58 220.11,227.29C217.75,229.05 215.79,231.28 214.67,234.03M245.36,240.34C249.86,241.72 254.62,240.9 259.25,240.85C257.9,238.54 256.27,236.19 253.76,235.05C249.89,233.11 247.8,238.23 245.36,240.34M205.89,242.03C210.62,242.36 215.37,242.39 220.1,241.97C218.41,240.07 216.66,238.23 214.92,236.39C210.65,235.48 208.01,238.93 205.89,242.03M225.43,242.03C229.83,242.4 234.25,242.37 238.65,242.04C237.38,239.04 234.62,235.69 230.98,236.4C228.64,237.73 227,239.91 225.43,242.03M239.32,246.06C237.94,247.41 233.65,249.88 236.17,251.72C240,252.37 243.98,252.27 247.82,251.71L248.27,250.85C247.19,247.62 242.81,244.05 239.32,246.06M216.58,252.09C220.5,252.44 224.44,252.42 228.36,252.08C227.32,249.74 225.87,246.78 223.01,246.5C219.56,245.93 218.2,249.83 216.58,252.09M223.76,263.92C228.57,264.17 233.39,264.28 238.19,264C236.33,261.42 234.25,258.21 230.97,257.53C227.72,258.29 225.68,261.4 223.76,263.92" style="fill:white;fill-rule:nonzero;"/>
        </g>
        <g transform="matrix(1,0,0,1,528.478,-0.2)">
            <path d="M206.36,26.4C213.18,26.36 219.99,26.35 226.81,26.38C233.83,36.76 240.63,47.29 247.75,57.6C247.87,51.3 247.7,45 247.84,38.7C245.81,38.69 243.77,38.67 241.75,38.62C241.77,34.26 241.72,29.91 241.52,25.55C249.75,26.23 258.07,26.44 266.3,25.64C266.11,29.9 266.18,34.17 266.24,38.43C263.99,38.5 261.74,38.57 259.49,38.64C259.47,51.44 259.28,64.23 259.35,77.03C255.21,77.04 251.08,77.13 246.95,76.92C239.91,66.59 232.75,56.35 225.6,46.1C225.12,51.91 225.38,57.75 225.28,63.58C226.99,63.54 228.7,63.53 230.41,63.52C230.36,68.03 230.36,72.54 230.37,77.05C223.28,76.99 216.18,77.08 209.1,77.03C209.04,72.6 209.19,68.16 208.91,63.73C210.44,63.61 211.98,63.51 213.52,63.41C213.47,55.17 213.53,46.93 213.48,38.69C211.12,38.6 208.76,38.53 206.41,38.49C206.29,34.46 206.31,30.43 206.36,26.4M169.48,31.17C177.64,29.84 185.83,28.68 194,27.41C194.53,31.74 195.03,36.07 195.52,40.4C193.64,40.48 191.77,40.56 189.9,40.62C191.27,50.73 193.66,61.17 191.01,71.27C189.52,76.99 184.66,81.31 179.11,83C173.75,84.62 167.77,85.68 162.39,83.57C158.21,81.7 155.31,77.82 153.52,73.7C150.02,65.67 148.81,56.89 147.58,48.28C145.71,48.42 143.85,48.56 141.98,48.65C141.35,44.88 140.63,41.13 139.63,37.45C147.71,35.5 155.88,33.97 164.02,32.26C164.42,36.42 164.71,40.58 165.03,44.75C163.03,45.14 161.04,45.53 159.04,45.87C159.29,52.01 159.66,58.24 161.4,64.17C162.36,67.52 165.33,70.58 169.07,70.13C173.74,69.67 179.36,67.8 180.82,62.8C182.83,55.98 180.18,48.98 178.39,42.42C175.9,42.68 173.41,42.98 170.92,43.21C170.56,39.18 170,35.18 169.48,31.17M280.75,27.48C295.75,31.03 310.67,34.96 325.59,38.82C323.63,45.35 322.03,51.98 320.15,58.53C316.8,57.58 313.46,56.6 310.11,55.65C310.72,53.31 311.36,50.98 312.01,48.64C306.45,47.03 300.89,45.45 295.24,44.21C294.48,46.57 293.73,48.93 293.01,51.3C297.53,52.75 302.11,54.01 306.61,55.53C306.46,58.5 305.03,61.22 304.26,64.07C299.61,62.86 295.04,61.33 290.39,60.11C289.57,62.68 288.81,65.27 288.07,67.87C294.59,69.4 301.05,71.16 307.62,72.49C308.41,69.68 309.23,66.87 310.07,64.08C313.37,64.89 316.61,65.9 319.86,66.89C317.45,73.64 314.89,80.33 312.6,87.11C297.82,83.83 283.16,80.05 268.43,76.51C269.69,71.84 271.01,67.18 272.24,62.5C274.16,62.96 276.08,63.41 277.99,63.88C280.07,56.17 282.57,48.58 284.67,40.87C282.25,40.28 279.86,39.55 277.5,38.76C278.76,35.05 279.73,31.26 280.75,27.48M105.66,51.91C113.14,47.9 120.81,44.24 128.42,40.49C129.97,44.38 131.57,48.24 133.05,52.16C131.07,53.15 129.1,54.15 127.14,55.17C131.68,66.28 135.87,77.54 140.56,88.59C137.06,90.46 133.59,92.37 130.05,94.16C118.92,88.28 107.92,82.15 96.75,76.34C99.06,81.77 101.92,86.93 104.52,92.22C106.02,91.42 107.53,90.64 109.04,89.87C111.04,93.58 113.2,97.19 115.1,100.96C108.88,104.58 102.76,108.38 96.43,111.83C94.53,108.31 92.53,104.85 90.64,101.33C90.24,101.46 89.45,101.72 89.05,101.85C90.78,100.43 92.59,99.11 94.47,97.9C90.97,90.79 87.33,83.75 83.83,76.64C81.71,77.75 79.63,78.94 77.57,80.15C75.56,76.57 73.76,72.89 71.82,69.28C78.17,65.65 84.67,62.32 91.03,58.72C102.07,64.84 113.07,71.01 124.13,77.08C121.65,71.43 119.11,65.82 116.6,60.19C114.58,60.95 112.55,61.72 110.47,62.33C108.99,58.8 107.46,55.29 105.66,51.91M335.19,62.34C339.92,57.22 344.28,51.76 348.9,46.53C361.78,54.76 374.61,63.04 387.43,71.35C385.04,74.03 382.85,76.89 380.52,79.63C379.77,80.36 379.12,81.45 377.93,81.42C365.27,82.54 352.6,83.52 339.95,84.75C345.88,88.7 351.88,92.57 357.99,96.25C360.01,94.08 362.08,91.96 364.2,89.89C367.02,91.78 369.73,93.81 372.51,95.75C367.72,101.3 362.57,106.51 357.81,112.09C344.08,104.19 330.59,95.87 316.97,87.78C320.04,83.29 323.48,79.07 326.49,74.53C339.29,73.55 352.16,74.05 364.97,73.2C359.61,69.32 354.16,65.57 348.92,61.54C346.83,63.91 344.82,66.35 342.67,68.67C340.2,66.53 337.57,64.58 335.19,62.34M123.26,117.01C127.46,117.13 131.66,117.02 135.85,117.13C135.85,130.79 135.81,144.45 135.87,158.1C131.68,158.11 127.48,158.25 123.29,158C119.1,151.29 114.26,144.99 110.3,138.14C109.5,144.74 110.03,151.41 109.84,158.05C105.62,158.14 101.41,158.12 97.19,158.07C97.13,144.42 97.13,130.76 97.18,117.1C101.22,117 105.26,117.14 109.3,116.98C114.13,123.62 118.3,130.72 123.17,137.33C123.19,130.56 123.07,123.78 123.26,117.01M198.49,121.53C201.94,117.25 207.88,116.56 213.01,116.45C218.09,116.44 223.77,116.96 227.7,120.54C229.86,122.86 231.69,126.15 231.13,129.38C227.1,129.94 223.02,130.16 218.95,130.13C217.32,128.55 216.78,125.36 214.05,125.31C212.06,124.89 209.78,125.35 208.58,127.12C208.92,129.34 211.29,129.6 213.06,130.06C218.37,131.28 223.99,132.28 228.5,135.53C233.86,139.56 233.98,148.03 229.9,153C226.88,156.46 222.39,158.28 217.88,158.68C212.47,159.15 206.78,158.98 201.74,156.74C197.16,154.45 194.22,149.32 194.2,144.24C198.43,143.15 203.06,142.99 207.43,143.45C207.84,146.78 210.33,150.13 214.03,149.77C216.65,150.15 218.65,148.31 219.61,146.06C217.5,142.51 213.13,142.33 209.56,141.39C205.31,140.28 200.72,138.88 197.86,135.33C194.71,131.34 195.06,125.24 198.49,121.53M36.64,117.02C43.77,117.17 50.9,116.99 58.02,117.08C62.29,117.25 67.1,118.78 69.16,122.85C72.23,128.85 71.24,137.65 65.12,141.37C60.43,144.06 54.83,143.39 49.65,143.54C49.74,148.37 49.69,153.21 49.66,158.05C45.21,158.17 40.76,158.15 36.31,158.09C36.52,144.4 35.86,130.67 36.64,117.02M49.66,126.52C49.68,129.02 49.68,131.51 49.61,134.01C52.28,133.98 55.93,134.63 57.45,131.78C58.42,130.05 57.03,128.36 56.23,126.9C54.04,126.69 51.85,126.54 49.66,126.52M76.36,117.37C80.7,116.64 85.27,117.28 89.7,117.1C89.71,130.75 89.78,144.4 89.66,158.05C85.22,158.17 80.78,158.15 76.33,158.08C76.28,144.51 76.18,130.93 76.36,117.37M142.62,116.99C153.83,117.16 165.05,117.04 176.26,117.07C176.33,120.34 176.33,123.62 176.32,126.89C169.59,126.98 162.85,126.94 156.12,126.91C156.09,128.58 156.05,130.26 156.01,131.93C162.25,132.04 168.5,131.94 174.74,131.97C174.84,135.14 174.81,138.32 174.65,141.49C168.47,141.31 162.29,141.33 156.11,141.44C156.07,143.59 156.05,145.74 156.01,147.89C162.94,147.86 169.86,147.93 176.79,147.83C176.96,151.23 176.95,154.63 176.88,158.04C165.45,158.22 154.03,158.13 142.6,158.08C142.66,144.39 142.61,130.69 142.62,116.99M234.78,117.43C248.11,116.6 261.51,117.33 274.87,117.04C274.95,120.79 274.9,124.54 274.85,128.29C270.54,128.34 266.24,128.32 261.93,128.31C261.9,138.22 261.92,148.14 261.92,158.06C257.26,158.2 252.59,158.12 247.93,158.08C247.89,148.16 247.92,138.24 247.92,128.32C243.57,128.3 239.23,128.42 234.89,128.13C234.91,124.56 234.94,120.99 234.78,117.43M279.59,117.05C287.39,117.14 295.18,117 302.98,117.11C306.35,117.37 310.03,117.27 312.96,119.22C319.2,122.97 319.64,133.05 314.04,137.57C312.81,138.62 311.33,139.34 309.94,140.16C315.35,143.83 317.33,150.39 320.33,155.87C325.55,142.97 330.33,129.88 335.65,117.02C340.51,117.1 345.38,117.16 350.24,116.97C355.64,130.65 360.91,144.39 366.31,158.07C361.35,158.09 356.39,158.21 351.44,158.04C350.84,155.92 350.22,153.81 349.57,151.71C345.07,151.54 340.57,151.65 336.07,151.6C335.36,153.75 334.68,155.91 334,158.07C324.61,158.11 315.21,158.29 305.83,157.99C303,153.54 300.79,148.71 297.92,144.28C297.07,142.71 295.29,142.23 293.7,141.82C293.57,147.23 293.71,152.64 293.65,158.04C289,158.17 284.36,158.17 279.72,158.06C279.34,144.39 279.6,130.71 279.59,117.05M293.67,126.48C293.66,128.68 293.63,130.89 293.58,133.1C296.84,132.91 300.78,133.86 303.45,131.46C304.03,129.92 304.09,127.59 302.16,127.02C299.43,126.13 296.49,126.56 293.67,126.48M342.77,130.38C341.57,134.14 340.4,137.92 339.15,141.67C341.54,141.69 343.94,141.7 346.34,141.67C345.19,137.89 344.03,134.12 342.77,130.38M364.83,117.02C369.33,117.13 373.83,116.92 378.32,117.28C379.41,123.76 380.73,130.21 382.15,136.63C384.32,130.17 385.91,123.54 387.84,117.02C392.1,117.09 396.37,117.14 400.63,116.96C402.92,123.39 404.4,130.07 406.54,136.55C408.27,130.13 409.12,123.5 410.67,117.03C415.08,117.13 419.49,117.04 423.9,117.13C420.88,130.78 417.68,144.38 414.69,158.03C410.13,158.13 405.57,158.16 401.01,158.01C398.81,150.41 396.73,142.76 394.42,135.19C392.16,142.79 389.92,150.39 387.79,158.01C383.25,158.22 378.71,158.16 374.17,158.03C371.1,144.35 367.7,130.74 364.83,117.02" style="fill:white;fill-rule:nonzero;"/>
        </g>
        <g transform="matrix(1,0,0,1,528.478,175.54)">
            <path d="M315.47,22.97C319.97,20.56 324,17.39 328.45,14.88C329.06,16.87 327.08,17.58 325.9,18.48C319,22.83 311.9,26.9 305.16,31.48C304.22,33.89 307.37,32.17 308.16,31.6C313.68,28.11 319.21,24.62 324.72,21.1C327.23,19.6 329.59,17.42 332.71,17.48C332.63,18 332.46,19.05 332.37,19.58C323.3,24.5 315.11,31 305.68,35.24C306.7,35.7 307.86,35.86 308.87,35.27C318.33,31.03 327.44,26.01 337.05,22.09C337.54,22.38 338.51,22.95 339,23.24C336.71,25.64 333.37,26.47 330.55,28.05C322.46,31.85 314.61,36.19 306.4,39.71C296.38,40.63 286.33,41.34 276.29,42.01L276.39,43.64C287.58,43.79 298.76,43.4 309.91,42.57C313.3,42.08 316.87,42.33 320.06,40.92C334.7,34.82 349.28,28.59 363.95,22.55C365.28,22.05 366.69,21.8 368.1,21.5C368.25,24.48 365.02,25.18 362.96,26.31C354.24,30.08 345.96,34.86 337.06,38.2C338.4,38.67 339.7,39.4 341.21,39.14C341.22,39.57 341.23,40.44 341.23,40.87C342.85,40.82 344.55,41 346.11,40.43C354.2,37.6 362.25,34.66 370.39,31.97C372.57,31.16 374.89,31.58 376.97,32.48C376.81,33.89 376.64,35.31 376.44,36.72C364.55,40.05 352.99,44.6 340.9,47.18C342.09,48.1 343.57,48.38 345.05,48.04C362.31,45.6 379.59,43.26 396.87,40.92C399.02,40.61 401.19,40.49 403.36,40.67C402.54,41.69 401.46,42.4 400.12,42.44C388.82,44.28 377.6,46.61 366.29,48.39C366.68,48.72 367.46,49.39 367.84,49.72C377.19,48.49 386.64,48.14 396.03,47.26C397.76,47.49 401.01,46.45 401.01,49.15C379.65,50.01 358.3,50.9 336.94,51.87C335.08,51.87 333.36,52.65 331.67,53.32C336.75,54.18 341.9,53.45 347.01,53.31C366.15,52.66 385.28,51.61 404.42,51.04C404.5,51.51 404.67,52.46 404.75,52.93C390.49,53.69 376.24,54.57 361.99,55.32C360.92,55.27 360.1,55.71 359.53,56.66C368.84,56.66 378.14,55.71 387.45,55.69C388.3,57.29 390.15,57.57 391.72,58.13C384.16,57.19 376.54,58.13 368.97,58.55C361.3,59.38 353.67,58.08 346.01,57.91C334.01,57.11 321.99,56.46 309.99,55.66C310.4,57.57 312.43,57.88 314.01,58.33C322.7,60.53 331.38,62.78 340.07,64.99C350.64,68.21 361.96,68.67 372.87,67.21C377.04,66.9 380.61,64.57 384.62,63.64C384.53,64.14 384.35,65.14 384.25,65.63C380.81,67.44 377.27,69.06 373.72,70.65C381.42,72.12 389.37,70.85 397.15,71.26C398.47,72.01 397.49,73.82 396.18,73.88C392.59,75.08 388.76,75.59 384.98,75.71C370.82,74.98 356.77,72.64 342.94,69.57C326.22,66.06 310.35,59.55 294.59,53.1C289.12,50.91 283.45,48.72 277.45,48.89C277.54,49.27 277.73,50.02 277.83,50.4C289.67,55.43 300.56,62.72 313,66.36C329.06,70.98 345.46,74.34 361.95,77C366.61,77.86 371.4,77.9 375.99,79.15C375.11,79.86 374.33,81.06 373.01,80.69C347.61,80.27 322.07,76.64 298.09,68.03C293.5,66.32 288.97,64.2 284.03,63.76C293.22,70.01 303.26,75.33 314.03,78.23C334.81,82.35 356.12,83.78 377.27,82.53C380.72,82.21 384.22,81.81 387.68,82.34C387.35,82.72 386.69,83.47 386.37,83.85C373.02,85.87 359.45,87.57 345.96,86.04C339.39,85.66 333.06,83.69 326.57,82.91L327.48,84.34C340.7,89 354.44,92.91 368.55,93.3C367.65,97.13 363.25,97.43 360.03,97.16C351.4,96.43 343.16,93.5 334.97,90.9C330.29,89.52 325.81,87.06 320.83,87.03C323.91,90.15 328.47,91.04 332.4,92.74C343.37,97.1 355.04,99.2 366.66,100.99C366.59,101.98 366.52,102.97 366.46,103.97C365.11,104 363.71,104.29 362.4,103.91C350.67,99.91 338.2,98.73 326.46,94.75C310.17,89.31 295.75,79.59 282.18,69.27C279.32,67.41 278.06,64.13 275.94,61.6C268.79,52.6 259.02,46.13 248.91,40.92C244.68,39.81 240.23,39.66 235.99,38.53C234.46,38.55 232.03,36.97 230.98,38.6L230.66,39.12C230.42,39.02 229.94,38.81 229.7,38.7L229.58,37.1C222.25,37.39 215.14,39.87 208.78,43.42C205.55,45.18 202.55,47.4 199.07,48.68C180.75,58.45 165.87,73.21 150.94,87.37C136.3,99.99 121.27,112.5 104.05,121.48C102.68,122.58 101.18,121.62 100.1,120.65C104.2,117.99 108.6,115.81 112.66,113.12C112.33,112.39 111.96,111.69 111.59,110.99C107.96,113.02 104.17,114.77 100.6,116.91C99.75,116.3 98.89,115.72 98.13,115C109.18,108.81 120.34,102.8 131.47,96.76C135.29,94.63 139.71,92.89 142.01,88.91C139.09,89.42 136.44,90.72 133.97,92.29C121.88,99.15 109.9,106.19 97.83,113.06C97.21,112.37 96.59,111.68 95.98,110.99C108.67,103.78 121.3,96.46 133.98,89.24C136.13,88.02 138.25,86.73 140.19,85.19C136.89,84.37 134.43,86.85 131.73,88.21C118.26,95.67 103.69,100.92 88.93,105.18C86.98,105.66 84.41,106.69 83.14,104.42C88.36,99.51 95.79,98.03 101.4,93.64C101.44,93.2 101.5,92.33 101.53,91.9C101.19,92.08 100.52,92.43 100.18,92.6C94.82,94.84 89.75,97.69 84.43,100.03C82.97,100.69 81.33,100.64 79.77,100.77C79.96,100.31 80.36,99.39 80.55,98.93C102.18,86.51 126.02,77.98 150.61,73.74C150.52,73.31 150.34,72.46 150.25,72.03C125.88,75.95 102.14,83.29 79.31,92.61C79.41,92.99 79.62,93.76 79.72,94.14C79.45,93.93 78.89,93.49 78.61,93.28C77.65,93.86 76.69,94.47 75.73,95.07C75.67,94.09 75.6,93.12 75.54,92.14C90.74,83.45 107.82,78.6 124.93,75.32C143.88,72.23 161.97,65.35 179.42,57.53C179.49,57 179.64,55.92 179.71,55.38C177.71,55.94 175.75,56.62 173.83,57.39C157.73,63.75 141.2,69.33 124.06,72.02C100.64,75.14 78.05,82.58 56.08,91.04C54.23,91.81 52.21,91.79 50.24,91.78C50.73,91.1 51.13,90.21 52.02,89.97C60.46,86.47 69.22,83.7 77.45,79.72C77.45,79.3 77.45,78.48 77.44,78.06C67.95,80.39 58.3,82 48.81,84.32C49.79,82.29 51.8,81.02 53.92,80.45C73.76,75.2 93.93,71.06 114.35,68.94C114.28,68.53 114.14,67.7 114.07,67.28C107.04,66.87 99.99,66.62 92.94,66.93C77.87,67.71 63.28,72.05 49.13,77.05C48.86,77.59 48.31,78.67 48.03,79.22C47.63,78.69 47.23,78.17 46.82,77.66C46.83,76.84 46.85,76.03 46.86,75.21C49.95,74.01 54.06,74.4 56.34,71.72C52.52,71.89 48.88,73.44 45.01,73.05C45.57,72.03 46.26,71.08 47.41,70.7C52.13,68.61 57.28,67.58 61.89,65.19C58.33,64.25 54.66,63.64 51.25,62.22C49.89,61.9 49.17,60.75 48.83,59.49C62.53,63.67 77.26,62.45 91.07,59.46C87.18,57.97 82.96,58.02 78.95,57.02C74.54,56.15 70.42,54.28 66.5,52.13C66.24,50.14 64.5,47.45 66.73,46.05C70.75,45.26 74.5,47.03 78.19,48.33C90.12,51.97 102.64,52.76 114.92,54.55C116.79,55.1 118.52,54.13 120.19,53.45C108.18,51.59 96.47,48.22 84.6,45.64C81.8,44.96 78.24,44.73 76.98,41.65C82.98,41.52 88.14,45.49 94.06,45.75C94.6,45.42 95.68,44.76 96.22,44.43C90.69,43.22 85.12,41.84 79.94,39.55C79.79,38.89 79.5,37.57 79.35,36.91C99.11,44.37 119.76,50.26 140.96,51.24C153.31,52.41 165.9,52.5 178.06,49.7C177.21,48.94 176.13,48.53 174.99,48.54C157.84,46.92 140.7,45.31 123.57,43.52C114.87,40.95 106.43,37.51 97.8,34.7C96.51,32.98 95.31,31.13 95.26,28.9C97.27,29.6 99.26,30.35 101.2,31.23C111.98,36.28 123.22,40.67 135.01,42.62C137.5,43.08 140.05,43.22 142.58,42.93C141.87,41.46 140.18,41.37 138.86,40.86C130.73,38.36 122.66,35.68 114.58,33.03C112.03,31.62 108.71,29.94 108.1,26.82C118.65,30.74 129.11,34.95 139.84,38.36C156.93,43.63 175.05,45.46 192.86,44.05C199.93,43.55 206.93,41.76 213.23,38.49C201.44,35.35 189.3,33.6 177.44,30.74C175,29.74 175.24,26.87 175.3,24.71C178.5,21.75 183.41,22.72 186.82,24.82C201.8,33.47 219.99,37.52 237.01,33.39C246.46,31.08 255.92,28.35 264.75,24.19C269.14,22.29 272.86,18.21 278.01,18.67C280.98,18.48 282.79,21.15 284.74,22.93C286.9,23 289.08,23.09 291.22,23.51C290.27,24.12 289.35,24.98 288.13,24.89C281.38,25.17 274.5,25.01 267.95,26.91C264.22,27.92 260.8,29.77 257.13,30.93C250.88,32.97 244.34,33.92 237.85,34.91C236.94,35.13 234.75,35.28 235.7,36.7C243.03,38.35 250.6,38.34 258.08,38.73C266.35,38.66 274.66,38.99 282.89,38.08C294,33.63 304.96,28.72 315.47,22.97M341.14,38.68C351.53,34.45 361.53,29.28 371.69,24.52L371.69,26.77C363.01,30.94 354.25,34.95 345.49,38.96C344.04,39.94 342.53,39.4 341.14,38.68M390.18,57.28C389.46,56.66 388.74,56.04 388.02,55.42C394.02,55.55 400.1,54.39 406.04,55.1L406.88,56.07C401.37,57.09 395.74,56.83 390.18,57.28" style="fill:white;fill-rule:nonzero;"/>
        </g>
        <g transform="matrix(2.41178,0,0,2.41178,480.251,-252.926)">
            <path d="M78.289,175.23L81.722,175.23C82.402,175.23 82.909,175.259 83.243,175.315C83.577,175.372 83.875,175.49 84.139,175.67C84.403,175.85 84.623,176.089 84.798,176.388C84.974,176.686 85.062,177.021 85.062,177.393C85.062,177.795 84.954,178.164 84.737,178.5C84.52,178.836 84.226,179.088 83.855,179.256C84.378,179.408 84.781,179.668 85.062,180.035C85.343,180.402 85.484,180.834 85.484,181.33C85.484,181.721 85.393,182.101 85.211,182.47C85.03,182.839 84.782,183.134 84.467,183.354C84.153,183.575 83.765,183.711 83.304,183.762C83.015,183.793 82.318,183.812 81.212,183.82L78.289,183.82L78.289,175.23ZM80.023,176.66L80.023,178.646L81.16,178.646C81.835,178.646 82.255,178.637 82.419,178.617C82.716,178.582 82.95,178.479 83.12,178.31C83.29,178.14 83.375,177.916 83.375,177.639C83.375,177.373 83.301,177.157 83.155,176.991C83.008,176.825 82.791,176.725 82.501,176.689C82.33,176.67 81.835,176.66 81.019,176.66L80.023,176.66ZM80.023,180.076L80.023,182.373L81.628,182.373C82.253,182.373 82.65,182.355 82.818,182.32C83.076,182.273 83.286,182.159 83.448,181.977C83.61,181.796 83.691,181.553 83.691,181.248C83.691,180.99 83.628,180.771 83.503,180.592C83.378,180.412 83.198,180.281 82.961,180.199C82.725,180.117 82.212,180.076 81.423,180.076L80.023,180.076Z" style="fill:white;fill-rule:nonzero;"/>
            <path d="M94.695,183.82L92.808,183.82L92.058,181.869L88.625,181.869L87.916,183.82L86.076,183.82L89.421,175.23L91.255,175.23L94.695,183.82ZM91.501,180.422L90.318,177.234L89.158,180.422L91.501,180.422Z" style="fill:white;fill-rule:nonzero;"/>
            <path d="M94.742,183.82L97.677,179.338L95.017,175.23L97.044,175.23L98.767,177.99L100.455,175.23L102.464,175.23L99.792,179.402L102.728,183.82L100.636,183.82L98.732,180.85L96.822,183.82L94.742,183.82Z" style="fill:white;fill-rule:nonzero;"/>
            <path d="M103.666,183.82L103.666,175.301L105.4,175.301L105.4,182.373L109.712,182.373L109.712,183.82L103.666,183.82Z" style="fill:white;fill-rule:nonzero;"/>
            <path d="M110.949,183.82L110.949,175.23L117.318,175.23L117.318,176.684L112.683,176.684L112.683,178.588L116.996,178.588L116.996,180.035L112.683,180.035L112.683,182.373L117.482,182.373L117.482,183.82L110.949,183.82Z" style="fill:white;fill-rule:nonzero;"/>
            <path d="M121.208,183.82L121.208,180.205L118.062,175.23L120.095,175.23L122.117,178.629L124.097,175.23L126.095,175.23L122.937,180.217L122.937,183.82L121.208,183.82Z" style="fill:white;fill-rule:nonzero;"/>
            <path d="M125.574,182.174L127.22,182.174L127.22,183.352C127.22,183.828 127.179,184.204 127.097,184.479C127.015,184.755 126.86,185.002 126.631,185.221C126.403,185.439 126.113,185.611 125.761,185.736L125.439,185.057C125.771,184.947 126.007,184.797 126.148,184.605C126.289,184.414 126.363,184.152 126.371,183.82L125.574,183.82L125.574,182.174Z" style="fill:white;fill-rule:nonzero;"/>
            <path d="M136.291,180.662L136.291,179.215L140.029,179.215L140.029,182.637C139.666,182.988 139.139,183.298 138.45,183.565C137.76,183.833 137.062,183.967 136.355,183.967C135.457,183.967 134.673,183.778 134.005,183.401C133.337,183.024 132.835,182.485 132.5,181.784C132.164,181.083 131.996,180.32 131.996,179.496C131.996,178.602 132.183,177.807 132.558,177.111C132.933,176.416 133.482,175.883 134.205,175.512C134.755,175.227 135.441,175.084 136.261,175.084C137.328,175.084 138.161,175.308 138.76,175.755C139.36,176.202 139.746,176.82 139.917,177.609L138.195,177.932C138.074,177.51 137.846,177.177 137.512,176.933C137.178,176.688 136.761,176.566 136.261,176.566C135.503,176.566 134.901,176.807 134.454,177.287C134.006,177.768 133.783,178.48 133.783,179.426C133.783,180.445 134.009,181.21 134.462,181.72C134.916,182.229 135.509,182.484 136.244,182.484C136.607,182.484 136.971,182.413 137.336,182.27C137.702,182.128 138.015,181.955 138.277,181.752L138.277,180.662L136.291,180.662Z" style="fill:white;fill-rule:nonzero;"/>
            <path d="M149.375,183.82L147.488,183.82L146.738,181.869L143.304,181.869L142.595,183.82L140.755,183.82L144.101,175.23L145.935,175.23L149.375,183.82ZM146.181,180.422L144.998,177.234L143.837,180.422L146.181,180.422Z" style="fill:white;fill-rule:nonzero;"/>
            <rect x="150.283" y="182.174" width="1.646" height="1.646" style="fill:white;fill-rule:nonzero;"/>
        </g>
    </g>
</svg>
